<svg width="540" height="360" viewBox="0 0 540 360" fill="none" xmlns="http://www.w3.org/2000/svg">
<path d="M64.4976 211.622C37.7784 228.427 23.7816 266.292 45.4104 316.742H470.981C478.181 298.462 482.501 274.442 483.883 260.15C486.85 228.96 476.244 196.56 457.553 179.467C410.256 136.181 370.937 196.308 346.075 170.892C331.726 156.218 333.115 115.042 321.854 95.9256C297.065 53.7336 250.402 32.9328 204.386 40.3992C173.772 45.36 146.16 61.5744 129.312 88.9848C106.272 126.533 123.034 153.432 112.846 179.381C101.52 208.318 82.3464 200.398 64.4976 211.622Z" fill="#E2E2E2"/>
<path d="M102.348 145.44C102.29 145.685 106.236 143.23 106.236 143.23L107.906 140.645C107.906 140.645 109.541 139.594 110.707 139.025C111.873 138.456 114.026 134.964 114.026 134.964L113.177 133.898C112.683 134.523 112.138 135.105 111.549 135.641C111.155 135.777 110.728 135.792 110.325 135.684C110.583 134.786 110.898 133.906 111.269 133.049C112.013 131.611 112.898 130.251 113.911 128.988L113.191 128.203C112.618 128.742 112.074 129.311 111.564 129.91C111.132 130.478 110.304 131.681 110.304 131.681C110.704 130.69 111.17 129.728 111.701 128.801C112.233 128.016 112.809 126.943 112.809 126.943L111.945 126.346C111.386 127.03 110.874 127.752 110.412 128.506C109.893 129.442 108.929 130.99 108.929 130.99C109.239 129.949 109.604 128.925 110.023 127.922C110.207 127.586 110.373 127.24 110.52 126.886L109.49 126.533C108.978 127.187 108.568 127.916 108.273 128.693C108.063 129.312 107.8 129.911 107.489 130.486C107.607 129.598 107.822 128.727 108.129 127.886C108.302 127.635 108.422 127.35 108.482 127.051L107.647 126.893C107.647 126.893 106.049 129.838 105.213 131.659C104.378 133.481 103.716 135.979 103.241 137.282C102.765 139.221 102.402 141.185 102.153 143.165L102.348 145.44Z" fill="#F5C5B3"/>
<path d="M126.965 162.907L106.733 159.422C106.394 155.977 106.322 152.511 106.517 149.054C106.877 142.999 107.618 141.314 107.618 141.314L102.189 140.594L100.346 148.788C98.6397 156.384 97.0845 163.505 98.3877 165.089C100.274 167.393 117.108 172.08 122.868 176.4C126.338 178.97 126.137 170.64 126.965 162.907Z" fill="#35C666"/>
<path d="M155.649 220.428L154.627 227.426L156.744 232.222L158.285 230.134L158.645 226.224L160.927 226.562L162.043 225.158L161.949 222.228L161.575 214.258L155.649 220.428Z" fill="#FEC4AD"/>
<path d="M154.232 167.09C152.669 166.514 147.586 166.889 147.586 166.889C147.586 166.889 147.104 172.318 149.17 176.515C151.236 180.713 156.37 195.955 157.004 197.395C157.637 198.835 155.643 220.392 155.643 220.392L163.08 218.88C163.08 218.88 166.68 202.248 166.637 198C166.594 193.752 162.656 177.948 159.84 172.908C157.025 167.868 158.012 168.48 154.232 167.09Z" fill="#35C666"/>
<path d="M141.991 151.538C141.991 151.538 140.357 158.738 141.638 160.373C142.358 161.352 145.562 164.837 145.562 164.837C145.562 164.837 135.036 170.395 131.94 170.395C128.844 170.395 129.931 164.189 129.931 164.189C129.931 164.189 133.308 161.525 133.812 160.171C134.316 158.818 134.597 154.922 134.597 154.922L141.991 151.538Z" fill="#FEC4AD"/>
<path d="M143.223 151.805C143.223 151.805 143.1 149.191 145.289 149.263C146.686 149.306 146.794 150.588 145.707 152.237C145.246 152.957 145.203 154.505 144.634 155.009C143.914 155.621 143.367 154.678 143.151 154.246C142.805 153.526 143.223 151.805 143.223 151.805Z" fill="#F5C5B3"/>
<path d="M131.436 151.805C131.436 151.805 131.558 149.191 129.369 149.263C127.973 149.306 127.865 150.588 128.952 152.237C129.413 152.957 129.456 154.505 130.025 155.009C130.745 155.621 131.292 154.678 131.508 154.246C131.853 153.526 131.436 151.805 131.436 151.805Z" fill="#F5C5B3"/>
<path d="M145.44 145.44C145.342 146.333 145.195 147.22 145.001 148.097C144.95 148.399 144.893 148.745 144.835 149.148C144.381 152.28 143.813 156.542 143.561 157.183C143.15 158.234 140.911 159.948 139.853 160.567C138.794 161.186 136.116 161.064 135.05 160.438C133.985 159.811 131.58 158.234 131.169 157.176C130.917 156.528 130.327 152.136 129.866 148.954C129.816 148.586 129.765 148.277 129.715 147.996C129.525 147.15 129.38 146.294 129.283 145.433C129.117 142.783 132.098 138.953 137.361 138.953C143.582 138.917 145.605 142.762 145.44 145.44Z" fill="#F5C5B3"/>
<g style="mix-blend-mode:multiply">
<path d="M131.918 142.078C133.468 141.5 135.117 141.234 136.77 141.294C138.423 141.355 140.048 141.741 141.552 142.43L143.409 141.25C141.342 140.299 139.089 139.825 136.814 139.86C132.926 139.889 131.918 142.078 131.918 142.078Z" fill="#E8D4E5"/>
</g>
<path d="M144.994 148.068C144.943 148.37 144.886 148.716 144.828 149.119C144.374 152.251 143.806 156.514 143.554 157.154C143.143 158.206 140.904 159.919 139.846 160.538C138.787 161.158 136.109 161.035 135.043 160.409C133.978 159.782 131.573 158.206 131.162 157.147C130.91 156.499 130.32 152.107 129.859 148.925C129.809 148.558 129.758 148.248 129.708 147.967L130.14 147.326C130.14 147.326 130.918 151.87 132.098 153.281C133.279 154.692 133.538 154.721 133.538 154.721L135.965 154.123L136.159 154.073C137.087 153.835 138.061 153.835 138.989 154.073L139.14 154.116L139.32 154.166L141.12 154.8C141.12 154.8 141.545 154.735 142.733 153.36C143.921 151.985 144.49 147.406 144.49 147.406L144.994 148.068Z" fill="#7B2B1A"/>
<path d="M145.821 143.719C145.821 143.806 145.375 146.902 145.202 147.391C144.936 148.111 144.727 148.68 144.727 148.68L144.41 147.96C143.819 146.676 143.497 145.284 143.467 143.87L143.409 141.214L144.295 140.436C146.03 140.724 146.217 141.732 145.821 143.719Z" fill="#7B2B1A"/>
<path d="M132.026 141.386L131.601 144.115C131.407 145.384 130.977 146.605 130.334 147.715L130.298 147.78L129.816 148.608L129.477 147.442C129.333 146.938 128.973 144.346 128.887 143.978C128.858 143.863 128.834 143.753 128.815 143.647C128.448 141.703 128.815 140.89 130.529 140.63L132.026 141.386Z" fill="#7B2B1A"/>
<path d="M144.295 140.465L143.409 141.242L141.725 141.847C139.856 141.045 137.83 140.681 135.799 140.782C132.429 141.041 131.969 142.013 131.918 142.07L131.573 141.991L129.917 141.631L129.578 141.559C129.739 140.916 129.961 140.289 130.241 139.687C131.565 137.686 135.173 136.397 138.456 136.728L138.787 136.764C140.431 136.899 141.991 137.543 143.251 138.607L144.295 140.465Z" fill="#7B2B1A"/>
<path d="M152.496 310.579V317.146H139.882C139.882 317.146 140.357 314.77 146.362 313.675L147.24 310.586L152.496 310.579Z" fill="#133A50"/>
<path d="M133.308 310.579V317.146H120.687C120.687 317.146 121.162 314.77 127.167 313.675L128.045 310.586L133.308 310.579Z" fill="#133A50"/>
<path d="M150.379 212.839C150.379 212.839 152.143 233.986 152.208 251.237C152.273 268.488 153.295 312.084 153.295 312.084H146.333C146.333 312.084 139.133 270.209 136.541 259.121C133.949 248.033 127.145 213.041 127.145 213.041L150.379 212.839Z" fill="#133A50"/>
<path d="M135.23 235.548C135.23 235.548 133.927 261.828 133.661 266.998C133.394 272.167 133.661 312.055 133.661 312.055C133.661 312.055 127.137 312.228 127.137 312.055C127.137 311.882 120.981 269.575 120.189 256.838C119.397 244.102 119.858 228.974 118.8 227.21C117.741 225.446 121.68 212.918 121.68 212.918L130.917 215.381L135.23 235.548Z" fill="#133A50"/>
<path d="M132.394 161.806C132.394 161.806 129.514 168.372 133.834 169.092C140.76 170.244 142.862 161.388 142.862 161.388L150.494 165.319C150.494 165.319 150.358 212.839 153.374 227.347C155.117 235.771 126.13 231.754 121.874 224.28C118.195 217.8 128.83 164.038 128.83 164.038L132.394 161.806Z" fill="white"/>
<path d="M144.677 162.209C144.468 162.497 134.23 192.449 137.715 220.673C138.528 227.254 150.516 221.81 153.382 221.81C153.382 221.81 154.743 200.765 155.074 192.931C155.405 185.098 151.676 182.527 152.007 178.697C152.338 174.866 156.507 168.041 156.507 168.041L144.677 162.209Z" fill="#35C666"/>
<path d="M127.562 223.661C128.736 204.055 129.211 163.015 129.211 163.015L122.292 162.504C122.292 162.504 118.8 196.92 118.8 200.83C118.8 202.385 119.268 221.292 118.217 224.827C120.535 225.18 127.44 226.022 127.562 223.661Z" fill="#35C666"/>
<path d="M202.91 151.531C197.482 153.396 191.894 155.34 187.582 159.134C183.269 162.929 180.49 169.056 182.304 174.506C184.118 179.957 191.664 183.146 196.07 179.41C197.64 178.078 198.612 175.81 197.77 173.902C196.099 170.179 190.282 171.922 187.56 174.96C184.327 178.56 182.268 183.478 183.067 188.251C183.866 193.025 188.035 197.28 192.874 197.28C197.712 197.28 204.602 189.979 200.462 187.474C195.206 184.298 188.446 191.858 185.861 197.431C183.276 203.004 184.889 210.55 190.181 213.682C195.473 216.814 207.871 212.854 204.617 207.641C201.182 202.133 191.038 210.074 189.691 216.425C188.345 222.775 193.291 229.738 199.771 230.515C206.251 231.293 217.382 223.956 212.918 219.24C206.438 212.422 195.725 229.781 198.828 238.637C201.931 247.493 214.754 251.014 221.947 244.994C223.294 243.864 224.51 242.251 224.258 240.516C223.841 237.636 219.874 236.801 217.102 237.73C209.858 240.149 206.582 250.286 211.046 256.486C215.51 262.685 226.166 262.8 230.76 256.694C231.653 255.506 232.351 254.009 232.027 252.562C231.574 250.531 229.147 249.386 227.124 249.775C225.101 250.164 223.43 251.698 222.271 253.418C218.138 259.538 219.535 268.74 225.295 273.362C231.055 277.985 240.336 277.351 245.419 271.987C246.744 270.59 247.838 268.718 247.486 266.825C247.082 264.665 244.742 263.167 242.518 263.225C240.293 263.282 238.248 264.55 236.707 266.155C230.227 272.894 232.992 285.926 241.661 289.44C250.33 292.954 267.516 283.277 261.432 276.178C257.371 271.433 249.35 281.693 250.38 287.849C251.41 294.005 258.48 298.224 264.506 296.64C270.533 295.056 278.503 286.387 273.866 282.24C270.562 279.302 265.226 285.516 264.204 289.814C263.745 291.983 264.008 294.242 264.953 296.246C265.898 298.251 267.474 299.891 269.438 300.917C273.708 303.019 278.935 301.752 283.039 299.347C287.143 296.942 290.52 293.515 294.48 290.88C298.467 288.242 302.941 286.427 307.64 285.543C312.339 284.659 317.167 284.723 321.84 285.732" stroke="white" stroke-width="2" stroke-miterlimit="10"/>
<path d="M476.95 179.827C468.151 174.211 389.743 240.307 392.616 292.536C392.616 292.536 407.88 271.922 421.186 261.878C434.491 251.834 435.787 241.315 435.766 230.918C435.744 220.522 455.638 224.806 457.877 213.25C461.844 192.794 484.863 184.882 476.95 179.827Z" fill="#95D8EB"/>
<path d="M482.098 228.485C469.44 236.16 473.163 246.384 465.696 252.36C460.268 256.68 451.203 254.434 446.681 260.345C441.591 267.012 447.401 276.185 447.804 284.227C448.395 295.33 438.495 303.667 428.436 307.022C416.751 310.939 401.638 309.715 395.237 298.094C387.692 284.414 393.336 263.714 406.584 257.27C409.803 255.708 413.885 255.283 416.513 252.115C420.948 246.773 418.104 239.083 420.156 232.286C422.158 225.662 428.71 221.004 434.744 218.938C440.777 216.871 446.926 216.454 452.823 214.056C460.851 210.794 467.885 203.623 474.574 198.792C480.536 194.472 501.48 186.386 504.886 200.527C507.989 213.415 492.74 222.041 482.098 228.485Z" fill="#4DB4D7"/>
<path d="M483.408 207.871C483.408 207.871 431.633 233.892 390.319 317.851" stroke="#194459" stroke-miterlimit="10"/>
<path d="M514.677 247.09C514.677 247.09 448.099 246.37 392.781 309.802" stroke="white" stroke-miterlimit="10"/>
<path d="M481.68 276.775C475.337 279.317 473.616 290.009 466.783 291.37C461.815 292.356 456.509 287.957 451.663 290.239C446.191 292.81 447.156 300.528 444.917 305.77C441.828 313.013 432.677 315.065 424.908 313.927C415.922 312.602 406.274 306.893 405.67 297.432C404.95 286.265 415.202 274.982 426.01 275.213C428.638 275.27 431.482 276.329 434.218 275.213C438.84 273.269 439.366 267.451 442.858 263.808C446.35 260.165 452.081 259.43 456.732 260.086C461.383 260.741 465.595 262.483 470.268 262.886C476.626 263.434 483.545 261.18 489.499 260.287C494.813 259.495 516.514 259.913 509.076 271.282C503.892 279.115 490.118 273.391 481.68 276.775Z" fill="#95D8EB"/>
<path d="M495.36 266.299C495.36 266.299 449.115 270.238 395.338 310.075" stroke="#194459" stroke-miterlimit="10"/>
<path d="M344.664 316.015C344.664 316.015 355.19 297.59 356.904 295.69C367.704 283.709 382.104 283.572 396.706 286.603C400.932 287.482 412.135 293.364 416.196 292.55C419.364 291.917 423.158 279.886 433.289 280.519C443.419 281.153 444.031 293.184 444.031 293.184C444.031 293.184 450.382 279.209 460.512 280.498C470.642 281.786 470.642 291.226 463.046 298.217C463.046 298.217 479.189 293.371 494.863 300.874C510.538 308.376 503.042 318.24 503.042 318.24L344.664 316.015Z" fill="#4DB4D7"/>
<path d="M63.0507 179.827C71.8491 174.211 150.257 240.307 147.384 292.536C147.384 292.536 132.12 271.922 118.815 261.878C105.509 251.834 104.213 241.315 104.235 230.918C104.256 220.522 84.3627 224.806 82.1235 213.25C78.1563 192.794 55.1379 184.882 63.0507 179.827Z" fill="#95D8EB"/>
<path d="M57.9027 228.485C70.5603 236.16 66.8379 246.384 74.3043 252.36C79.7331 256.68 88.7979 254.434 93.3195 260.345C98.4099 267.012 92.5995 276.185 92.1963 284.227C91.6059 295.33 101.506 303.667 111.564 307.022C123.25 310.939 138.363 309.715 144.763 298.094C152.309 284.414 146.664 263.714 133.416 257.27C130.198 255.708 126.115 255.283 123.487 252.115C119.052 246.773 121.896 239.083 119.844 232.286C117.843 225.662 111.291 221.004 105.257 218.938C99.2235 216.871 93.0747 216.454 87.1779 214.056C79.1499 210.794 72.1155 203.623 65.4267 198.792C59.4651 194.472 38.5203 186.386 35.1147 200.527C32.0115 213.415 47.2611 222.041 57.9027 228.485Z" fill="#4DB4D7"/>
<path d="M56.5918 207.871C56.5918 207.871 108.367 233.892 149.681 317.851" stroke="#194459" stroke-miterlimit="10"/>
<path d="M25.3223 247.09C25.3223 247.09 91.9007 246.37 147.218 309.802" stroke="white" stroke-miterlimit="10"/>
<path d="M58.32 276.775C64.6632 279.317 66.384 290.009 73.2168 291.37C78.1848 292.356 83.4912 287.957 88.3368 290.239C93.8088 292.81 92.844 300.528 95.0832 305.77C98.172 313.013 107.323 315.065 115.092 313.927C124.078 312.602 133.726 306.893 134.33 297.432C135.05 286.265 124.798 274.982 113.99 275.213C111.362 275.27 108.518 276.329 105.782 275.213C101.16 273.269 100.634 267.451 97.1424 263.808C93.6504 260.165 87.9192 259.43 83.268 260.086C78.6168 260.741 74.4048 262.483 69.732 262.886C63.3744 263.434 56.4552 261.18 50.5008 260.287C45.1872 259.495 23.4864 259.913 30.924 271.282C36.108 279.115 49.8816 273.391 58.32 276.775Z" fill="#95D8EB"/>
<path d="M44.6396 266.299C44.6396 266.299 90.8852 270.238 144.662 310.075" stroke="#194459" stroke-miterlimit="10"/>
<path d="M195.336 316.015C195.336 316.015 184.809 297.59 183.096 295.69C172.296 283.709 157.896 283.572 143.294 286.603C139.068 287.482 127.864 293.364 123.804 292.55C120.636 291.917 116.841 279.886 106.711 280.519C96.5804 281.153 95.9684 293.184 95.9684 293.184C95.9684 293.184 89.618 279.209 79.4876 280.498C69.3572 281.786 69.3572 291.226 76.9532 298.217C76.9532 298.217 60.8108 293.371 45.1364 300.874C29.462 308.376 36.9572 318.24 36.9572 318.24L195.336 316.015Z" fill="#4DB4D7"/>
<path d="M308.751 317.621H292.378C291.506 317.62 290.666 317.292 290.024 316.701C289.383 316.11 288.987 315.3 288.915 314.431L287.842 301.471H313.287L312.214 314.431C312.142 315.3 311.745 316.11 311.104 316.701C310.463 317.292 309.623 317.62 308.751 317.621Z" fill="#21295B"/>
<path d="M405.453 317.621H389.073C388.201 317.62 387.361 317.292 386.72 316.701C386.078 316.11 385.682 315.3 385.61 314.431L384.537 301.471H409.982L408.909 314.431C408.837 315.299 408.442 316.108 407.802 316.699C407.162 317.289 406.324 317.618 405.453 317.621Z" fill="#21295B"/>
<path d="M408.29 284.537H289.533L297.928 223.337C298.245 221.027 299.387 218.911 301.143 217.378C302.9 215.845 305.152 215 307.483 214.999H390.333C392.664 215 394.916 215.845 396.673 217.378C398.429 218.911 399.571 221.027 399.888 223.337L408.29 284.537Z" fill="#124E94"/>
<path d="M392.263 272.664H305.561L311.717 211.162C311.938 208.955 312.971 206.91 314.616 205.423C316.26 203.935 318.398 203.112 320.616 203.112H377.208C379.425 203.112 381.563 203.935 383.208 205.423C384.852 206.91 385.886 208.955 386.107 211.162L392.263 272.664Z" fill="#124E94"/>
<g style="mix-blend-mode:multiply">
<path d="M291.441 270.641L289.533 284.537H408.29L406.382 270.641H291.441Z" fill="#CFCFCF"/>
</g>
<path d="M421.142 308.29H276.682L279.36 276.905H418.471L421.142 308.29Z" fill="#124E94"/>
<g style="mix-blend-mode:multiply">
<path d="M358.789 265.912C372.327 260.453 378.877 245.052 373.418 231.514C367.959 217.976 352.559 211.426 339.02 216.885C325.482 222.344 318.932 237.744 324.391 251.282C329.85 264.821 345.25 271.371 358.789 265.912Z" fill="#CFCFCF"/>
</g>
<path d="M357.458 262.593C369.163 257.873 374.826 244.558 370.106 232.852C365.387 221.147 352.071 215.484 340.366 220.204C328.66 224.923 322.997 238.239 327.717 249.944C332.437 261.65 345.752 267.313 357.458 262.593Z" fill="white"/>
<path d="M356.767 223.2C357.323 223.756 357.636 224.509 357.639 225.295C357.641 225.491 357.619 225.687 357.574 225.878C357.539 226.068 357.486 226.254 357.415 226.433C357.336 226.609 357.245 226.78 357.142 226.944C357.03 227.106 356.905 227.257 356.767 227.398C356.456 227.706 356.081 227.943 355.668 228.09C355.255 228.236 354.814 228.29 354.378 228.247C353.942 228.203 353.521 228.064 353.144 227.839C352.768 227.614 352.447 227.308 352.203 226.944C352.099 226.782 352.009 226.611 351.936 226.433C351.863 226.253 351.805 226.068 351.763 225.878C351.729 225.686 351.712 225.491 351.713 225.295C351.715 224.51 352.025 223.758 352.577 223.2C352.717 223.062 352.869 222.937 353.031 222.826C353.194 222.722 353.365 222.631 353.542 222.552C353.722 222.482 353.907 222.427 354.096 222.386C354.29 222.346 354.488 222.327 354.687 222.329C354.88 222.33 355.073 222.349 355.263 222.386C355.454 222.421 355.64 222.479 355.817 222.559C355.997 222.629 356.168 222.718 356.328 222.826C356.487 222.935 356.635 223.06 356.767 223.2Z" fill="#B3B3B3"/>
<path d="M364.003 228.96C364.237 229.271 364.407 229.626 364.504 230.003C364.601 230.381 364.623 230.774 364.568 231.16C364.513 231.545 364.383 231.917 364.185 232.252C363.986 232.587 363.724 232.88 363.412 233.114C363.101 233.348 362.746 233.519 362.369 233.616C361.991 233.713 361.599 233.735 361.213 233.68C360.827 233.625 360.456 233.495 360.12 233.296C359.785 233.098 359.492 232.836 359.258 232.524C358.787 231.894 358.585 231.103 358.695 230.325C358.806 229.546 359.221 228.843 359.848 228.37C360.42 227.941 361.127 227.733 361.84 227.784C362.552 227.834 363.223 228.139 363.729 228.643C363.83 228.74 363.921 228.846 364.003 228.96ZM367.884 238.565C367.931 238.952 367.901 239.346 367.797 239.722C367.692 240.098 367.514 240.45 367.274 240.758C367.033 241.065 366.734 241.322 366.394 241.514C366.054 241.706 365.679 241.83 365.292 241.877C364.905 241.924 364.513 241.895 364.137 241.79C363.762 241.686 363.411 241.509 363.104 241.269C362.797 241.029 362.54 240.731 362.349 240.392C362.157 240.052 362.034 239.679 361.987 239.292C361.939 238.905 361.969 238.513 362.073 238.138C362.177 237.762 362.355 237.411 362.595 237.104C362.835 236.797 363.133 236.541 363.472 236.349C363.811 236.157 364.185 236.034 364.572 235.987C365.019 235.93 365.474 235.976 365.901 236.122C366.327 236.268 366.715 236.51 367.034 236.83C367.504 237.296 367.803 237.907 367.884 238.565ZM366.444 248.832C366.292 249.19 366.071 249.515 365.794 249.787C365.517 250.06 365.189 250.275 364.828 250.421C364.468 250.567 364.082 250.64 363.694 250.637C363.305 250.633 362.921 250.553 362.563 250.402C362.204 250.25 361.878 250.029 361.605 249.751C361.331 249.474 361.115 249.145 360.969 248.784C360.823 248.423 360.749 248.037 360.752 247.647C360.754 247.258 360.834 246.872 360.986 246.514C361.297 245.791 361.881 245.22 362.61 244.926C363.34 244.632 364.156 244.639 364.881 244.944C365.231 245.094 365.548 245.309 365.817 245.578C366.234 245.996 366.515 246.53 366.624 247.111C366.733 247.691 366.665 248.291 366.429 248.832H366.444ZM360.684 252.85C361.157 253.48 361.36 254.272 361.25 255.053C361.139 255.833 360.723 256.537 360.093 257.011C359.463 257.482 358.673 257.684 357.894 257.574C357.115 257.463 356.412 257.049 355.939 256.421C355.704 256.11 355.533 255.756 355.436 255.378C355.338 255.001 355.316 254.609 355.37 254.223C355.424 253.837 355.554 253.466 355.751 253.13C355.949 252.794 356.211 252.501 356.522 252.266C357.094 251.838 357.801 251.63 358.513 251.68C359.226 251.731 359.897 252.036 360.403 252.54C360.485 252.639 360.562 252.742 360.633 252.85H360.684ZM353.066 257.58C353.114 257.967 353.086 258.359 352.983 258.735C352.879 259.111 352.703 259.463 352.463 259.77C352.224 260.078 351.926 260.335 351.588 260.528C351.249 260.72 350.875 260.844 350.488 260.892C350.101 260.941 349.709 260.914 349.332 260.811C348.956 260.708 348.604 260.531 348.296 260.292C347.989 260.052 347.731 259.754 347.539 259.415C347.347 259.076 347.223 258.702 347.176 258.314C347.128 257.928 347.156 257.536 347.26 257.161C347.363 256.785 347.54 256.434 347.779 256.127C348.019 255.82 348.316 255.563 348.655 255.372C348.994 255.18 349.367 255.057 349.754 255.01C350.201 254.952 350.656 254.998 351.083 255.144C351.51 255.29 351.898 255.532 352.216 255.852C352.666 256.324 352.947 256.932 353.015 257.58H353.066ZM334.043 242.726C334.093 243.113 334.065 243.506 333.962 243.882C333.859 244.258 333.683 244.611 333.443 244.918C333.204 245.226 332.906 245.484 332.566 245.676C332.227 245.868 331.853 245.991 331.466 246.038C330.686 246.136 329.899 245.92 329.278 245.438C328.657 244.957 328.253 244.248 328.154 243.468C328.058 242.686 328.277 241.898 328.761 241.277C329.246 240.656 329.957 240.253 330.739 240.156C331.186 240.101 331.64 240.148 332.067 240.294C332.494 240.439 332.881 240.68 333.201 240.998C333.646 241.473 333.924 242.08 333.993 242.726H334.043ZM344.123 257.846C343.972 258.204 343.751 258.529 343.474 258.802C343.197 259.074 342.869 259.29 342.508 259.435C342.148 259.581 341.762 259.654 341.374 259.651C340.985 259.648 340.601 259.568 340.243 259.416C339.884 259.264 339.558 259.043 339.285 258.766C339.011 258.488 338.795 258.16 338.649 257.799C338.503 257.438 338.429 257.051 338.432 256.662C338.434 256.272 338.514 255.887 338.666 255.528C338.975 254.804 339.559 254.232 340.289 253.938C341.019 253.644 341.836 253.651 342.561 253.958C342.911 254.108 343.228 254.323 343.497 254.592C343.909 255.019 344.183 255.559 344.283 256.143C344.383 256.728 344.305 257.329 344.059 257.868L344.123 257.846ZM336.808 249.473C337.042 249.784 337.213 250.139 337.31 250.516C337.407 250.894 337.429 251.287 337.374 251.672C337.319 252.058 337.189 252.429 336.99 252.765C336.792 253.1 336.53 253.393 336.218 253.627C335.907 253.861 335.553 254.031 335.176 254.128C334.799 254.225 334.407 254.247 334.022 254.192C333.637 254.137 333.266 254.007 332.931 253.809C332.596 253.611 332.304 253.348 332.071 253.037C331.835 252.726 331.664 252.372 331.565 251.995C331.467 251.617 331.445 251.224 331.499 250.838C331.553 250.452 331.683 250.081 331.881 249.745C332.079 249.409 332.342 249.116 332.654 248.882C333.224 248.452 333.931 248.242 334.644 248.291C335.357 248.34 336.028 248.644 336.535 249.149C336.608 249.26 336.676 249.375 336.736 249.494L336.808 249.473Z" fill="#B3B3B3"/>
<path d="M334.382 232.214C334.518 232.352 334.641 232.501 334.75 232.661C334.857 232.824 334.949 232.998 335.023 233.179C335.093 233.359 335.149 233.545 335.189 233.734C335.226 233.928 335.245 234.126 335.246 234.324C335.244 235.11 334.93 235.863 334.375 236.419C334.238 236.56 334.086 236.685 333.922 236.794C333.762 236.901 333.59 236.99 333.41 237.06C333.232 237.136 333.046 237.194 332.856 237.233C332.666 237.27 332.473 237.289 332.28 237.29C332.084 237.29 331.888 237.268 331.697 237.226C331.507 237.193 331.321 237.14 331.142 237.067C330.963 236.99 330.792 236.896 330.631 236.786C330.229 236.515 329.898 236.15 329.669 235.722C329.439 235.294 329.317 234.817 329.314 234.331C329.312 234.135 329.331 233.94 329.371 233.748C329.411 233.558 329.469 233.372 329.544 233.194C329.614 233.014 329.703 232.842 329.81 232.682C329.919 232.518 330.044 232.366 330.185 232.229C330.743 231.675 331.497 231.365 332.284 231.365C333.07 231.365 333.824 231.675 334.382 232.229V232.214Z" fill="#B3B3B3"/>
<path d="M314.835 145.116C313.968 142.891 313.748 140.466 314.199 138.121C314.65 135.776 315.754 133.606 317.384 131.861C317.384 131.861 338.868 145.778 362.88 141.84C362.88 141.84 365.516 149.083 358.128 155.794C358.143 155.808 332.432 160.682 314.835 145.116Z" fill="#95D8EB"/>
<path d="M351.626 114.286C336.161 101.246 306.864 99.4104 269.784 105.379C237.895 110.513 205.423 122.558 194.58 139.565C189.641 147.312 192.996 168.833 192.996 168.833C222.372 170.64 233.129 145.44 233.129 145.44C233.129 145.44 231.163 138.24 237.744 135.108C260.784 124.027 296.474 120.24 309.744 123.516C311.721 123.955 313.514 124.993 314.879 126.489C316.244 127.986 317.113 129.866 317.369 131.875C317.369 131.875 335.513 152.474 362.822 141.516C362.837 141.494 358.646 120.24 351.626 114.286Z" fill="#124E94"/>
<path d="M239.134 156.96C239.259 154.576 238.708 152.205 237.545 150.12C236.382 148.034 234.654 146.32 232.56 145.174C232.56 145.174 216.526 165.139 192.485 168.934C192.485 168.934 192.255 176.638 201.377 180.691C201.37 180.72 227.311 177.264 239.134 156.96Z" fill="#95D8EB"/>
<path d="M235.368 224.418H114.898C109.243 224.418 104.659 229.002 104.659 234.656V307.24C104.659 312.894 109.243 317.478 114.898 317.478H235.368C241.023 317.478 245.606 312.894 245.606 307.24V234.656C245.606 229.002 241.023 224.418 235.368 224.418Z" fill="#FFD71D"/>
<g style="mix-blend-mode:multiply">
<path d="M245.599 236.766C245.599 233.496 244.302 230.36 241.993 228.045C239.683 225.73 236.55 224.426 233.28 224.418H117.007C113.732 224.418 110.592 225.719 108.276 228.035C105.96 230.35 104.659 233.491 104.659 236.766L168.574 288.606C170.407 290.091 172.694 290.901 175.054 290.901C177.413 290.901 179.7 290.091 181.534 288.606L245.599 236.766Z" fill="#FFD71D"/>
</g>
<path style="mix-blend-mode:overlay" opacity="0.7" d="M112.882 307.873V239.516C112.882 236.241 114.183 233.101 116.498 230.785C118.814 228.469 121.955 227.168 125.23 227.168H240.926C238.765 225.408 236.068 224.437 233.28 224.418H117.007C113.732 224.418 110.592 225.719 108.276 228.035C105.96 230.35 104.659 233.491 104.659 236.766V305.13C104.659 308.405 105.96 311.546 108.276 313.861C110.592 316.177 113.732 317.478 117.007 317.478H117.554C116.1 316.334 114.924 314.876 114.115 313.212C113.306 311.549 112.884 309.723 112.882 307.873Z" fill="url(#paint0_radial)"/>
<path d="M167.342 279.569L104.659 224.41H245.599L182.916 279.569C180.763 281.461 177.995 282.505 175.129 282.505C172.263 282.505 169.495 281.461 167.342 279.569Z" fill="url(#paint1_linear)"/>
<g style="mix-blend-mode:overlay" opacity="0.7">
<path d="M167.342 279.569L104.659 224.41H245.599L182.916 279.569C180.763 281.461 177.995 282.505 175.129 282.505C172.263 282.505 169.495 281.461 167.342 279.569Z" fill="#FFDD00"/>
</g>
<path d="M287.776 168.12C287.776 168.12 291.787 156.542 292.096 155.268C293.76 147.744 294.213 131.436 294.105 127.973C293.997 124.51 293.68 121.493 293.608 120.996C293.536 120.499 291.391 118.21 291.384 118.246C291.162 118.286 290.939 118.31 290.714 118.318V118.75L289.785 117.95L289.008 117.907L288.928 118.267L287.82 117.734H286.754C286.754 117.734 287.474 119.938 287.834 121.277C288.194 122.616 287.834 122.717 287.834 122.717C287.456 122.874 287.048 122.95 286.639 122.94C286.138 122.872 285.632 122.851 285.127 122.875C285.127 122.875 288.367 127.087 288.511 127.476C289.145 128.343 289.59 129.335 289.814 130.386C290.039 131.437 290.039 132.523 289.814 133.574C288.576 140.357 285.199 150.43 285.199 150.43C285.3 150.192 280.843 162.922 280.843 162.922L287.776 168.12Z" fill="#FEC4AD"/>
<path d="M285.624 183.442C286.862 173.7 291.852 162.324 291.852 162.324C291.852 162.324 284.234 160.812 282.261 158.105C282.261 158.105 279.633 164.52 278.128 167.71C276.458 171.238 274.111 175.082 277.056 177.178C280 179.273 285.192 186.833 285.624 183.442Z" fill="#35C666"/>
<path d="M256.421 311.321V317.585H268.459C268.459 317.585 268.006 315.317 262.296 314.273L261.454 311.321H256.421Z" fill="#133A50"/>
<path d="M274.73 311.321V317.585H286.769C286.769 317.585 286.315 315.317 280.606 314.273L279.763 311.321H274.73Z" fill="#133A50"/>
<path d="M258.48 218.081C258.48 218.081 256.796 235.584 256.738 252.036C256.68 268.488 255.701 312.754 255.701 312.754H262.347C262.347 312.754 269.194 270.13 271.707 259.56C274.22 248.99 280.671 218.282 280.671 218.282L258.48 218.081Z" fill="#133A50"/>
<path d="M268.661 160.034C268.661 160.034 268.229 163.382 267.876 165.074C267.699 166.149 267.395 167.198 266.969 168.199C266.393 169.351 262.857 172.865 262.857 172.865C262.857 172.865 273.873 178.682 277.113 178.682C280.353 178.682 279.216 172.202 279.216 172.202C279.216 172.202 275.688 169.409 275.155 167.998C274.622 166.586 274.32 162.504 274.32 162.504L268.661 160.034Z" fill="#FEC4AD"/>
<path d="M272.88 237.074C272.88 237.074 274.125 264.816 274.377 269.748C274.629 274.68 274.377 312.725 274.377 312.725C274.377 312.725 280.605 312.89 280.605 312.725C280.605 312.559 286.473 269.525 287.237 257.378C288 245.232 287.553 230.796 288.561 229.118C289.569 227.441 285.84 218.16 285.84 218.16L277.027 217.836L272.88 237.074Z" fill="#133A50"/>
<path d="M265.104 169.603C265.104 169.603 255.801 165.874 254.268 168.934C253.108 171.252 254.102 186.127 254.62 190.289C255.067 193.889 257.572 224.338 257.572 224.338C257.572 224.338 261.05 229.723 277.776 227.578C284.256 226.75 287.395 223.603 287.395 223.603C287.395 223.603 285.588 187.294 285.091 183.65C284.544 180.488 283.803 177.362 282.873 174.29L277.92 171.043C277.92 171.043 279.504 174.55 275.04 175.55C265.932 177.559 265.104 169.603 265.104 169.603Z" fill="#35C666"/>
<path d="M277.459 147.37C278.511 147.794 280.339 148.745 280.563 149.623C281.033 151.254 281.385 152.917 281.614 154.598C281.715 156.146 281.931 159.07 281.931 160.891C281.931 162.713 280.829 166.399 280.411 166.788C279.994 167.177 276.934 167.81 275.904 167.508C274.875 167.206 268.798 164.074 268.416 160.229C268.416 160.229 267.343 160.798 265.363 157.586C264.845 156.751 266.631 150.538 266.868 149.429C267.451 146.736 274.068 148.86 275.58 148.435C276.31 148.306 276.974 147.93 277.459 147.37Z" fill="#FEC4AD"/>
<path d="M280.562 149.623C280.562 149.623 275.911 152.503 274.082 152.683C272.253 152.863 269.604 155.326 269.654 156.103C269.637 156.365 269.559 156.619 269.427 156.845C269.294 157.071 269.111 157.264 268.891 157.406C268.891 157.406 267.761 155.606 266.839 155.794C265.003 156.161 266.083 158.422 267.077 158.926C267.71 159.239 268.364 159.509 269.035 159.732C269.13 160.373 269.159 161.022 269.121 161.669C268.966 162.456 268.704 163.219 268.344 163.937C268.344 163.937 266.184 159.415 264.269 157.73C259.689 153.72 263.009 146.268 267.516 144.871C269.337 144.302 274.334 143.928 276.768 145.022C277.716 145.44 278.553 146.073 279.211 146.872C279.87 147.671 280.333 148.613 280.562 149.623Z" fill="#133A50"/>
<path d="M270.82 155.995C270.885 156.175 271.368 156.211 271.454 156.247C271.54 156.283 271.562 156.362 272.397 157.644C273.016 158.587 274.053 158.897 275.997 158.249C277.473 157.752 277.272 156.485 277.372 155.88C277.473 155.275 277.603 155.16 277.84 155.16C278.078 155.16 278.2 155.16 278.51 155.707C278.82 156.254 278.956 157.615 280.497 157.385C281.563 157.226 281.844 156.931 281.988 156.089C282.107 155.417 282.148 154.733 282.11 154.051C282.067 153.497 282.06 153.151 281.772 153.122C281.345 153.116 280.92 153.162 280.504 153.259C279.78 153.29 279.071 153.474 278.424 153.799C277.927 154.159 277.977 154.382 277.704 154.433C277.43 154.483 277.387 154.253 276.796 154.08C276.206 153.907 273.751 154.339 272.829 154.505C271.908 154.67 270.669 155.009 270.669 155.362C270.693 155.578 270.744 155.791 270.82 155.995ZM278.74 154.627C278.784 154.174 278.82 154.224 279.957 153.965C281.095 153.706 281.217 153.756 281.448 153.965C281.613 154.237 281.722 154.54 281.771 154.855C281.819 155.17 281.804 155.491 281.728 155.801C281.745 156.119 281.641 156.432 281.437 156.676C281.232 156.921 280.943 157.079 280.627 157.118C279.626 157.291 279.388 156.794 279.108 156.103C278.91 155.632 278.798 155.13 278.776 154.62L278.74 154.627ZM272.109 155.347C272.26 155.095 273.801 154.886 274.989 154.742C276.177 154.598 276.537 154.555 276.732 154.958C276.866 155.443 276.915 155.947 276.876 156.449C276.876 157.169 276.696 157.889 274.896 158.184C273.621 158.414 273.002 158.062 272.476 157.104C272.301 156.854 272.182 156.568 272.127 156.268C272.072 155.967 272.083 155.658 272.16 155.362L272.109 155.347ZM268.243 156.499L270.784 155.981L271.641 154.728C271.641 154.728 270.662 154.865 269.049 155.225C268.5 155.375 267.982 155.618 267.516 155.945C267.804 156.084 268.063 156.277 268.279 156.514L268.243 156.499Z" fill="#21295B"/>
<path d="M248.227 169.2C248.227 169.2 246.024 155.261 246.002 153.958C245.873 146.254 249.782 135.907 250.574 132.53C251.366 129.154 251.899 129.686 252.057 129.24C252.216 128.794 257.817 127.937 257.817 127.937C258.421 127.675 259.042 127.454 259.675 127.274C260.028 127.274 261.504 126.799 261.504 126.799L260.64 128.326C260.64 128.326 257.155 130.975 256.925 131.328C256.131 132.051 255.499 132.933 255.069 133.917C254.64 134.901 254.423 135.964 254.433 137.038C254.289 143.928 254.311 151.394 254.311 151.394C254.261 151.142 257.609 165.665 257.609 165.665L248.227 169.2Z" fill="#FEC4AD"/>
<path d="M254.621 190.289C252.252 183.571 246.838 165.528 246.838 165.528C246.838 165.528 254.888 163.498 257.163 161.042L261.008 172.454C262.253 176.155 264.14 180.245 260.964 181.987C257.904 183.658 255.759 193.514 254.621 190.289Z" fill="#35C666"/>
<path d="M410.321 201.55C412.409 203.494 413.921 202.846 417.031 213.588C419.033 220.45 426.348 255.074 426.348 255.074L421.977 256.968C416.073 240.408 416.081 240.408 409.176 227.002C407.099 222.879 405.507 218.53 404.431 214.042L391.68 213.307C383.702 210.031 386.438 198.382 386.438 198.382C386.438 198.382 408.24 199.598 410.321 201.55Z" fill="url(#paint2_linear)"/>
<path d="M361.98 191.254L373.5 183.881L384.639 192.521L398.513 196.999L398.441 197.042C404.021 198.979 410.393 201.802 412.352 203.623C414.44 205.567 418.565 208.332 415.232 219.017C413.108 225.842 403.856 260.438 403.856 260.438L399.168 259.603C399.168 259.603 400.832 239.558 402.502 224.561C403.308 217.289 403.582 215.266 403.582 215.266C403.582 215.266 372.622 218.642 362.628 213.372C355.637 209.7 361.98 196.841 361.98 191.254Z" fill="url(#paint3_linear)"/>
<path d="M404.179 257.947C404.179 257.947 404.043 259.207 402.019 259.776C401.407 259.92 400.768 259.894 400.17 259.7C399.572 259.506 399.038 259.151 398.628 258.674L398.16 262.8L404.64 267.336H409.99L407.11 264.125L404.179 257.947Z" fill="#133A50"/>
<path d="M425.649 252.252C425.911 252.749 425.975 253.326 425.826 253.868C425.678 254.41 425.329 254.874 424.85 255.168C424.313 255.494 423.697 255.666 423.068 255.666C422.44 255.666 421.823 255.494 421.286 255.168L422.114 259.222L437.328 254.462L425.649 252.252Z" fill="#133A50"/>
<path d="M408.14 149.76C408.14 149.976 405.605 146.743 405.605 146.743L405.022 144.094C405.022 144.094 404 142.726 403.208 141.898C402.416 141.07 401.71 137.52 401.71 137.52L402.74 136.901C402.957 137.568 403.229 138.215 403.553 138.838C403.838 139.072 404.187 139.215 404.554 139.248C404.607 138.426 404.607 137.601 404.554 136.778C404.378 135.363 404.062 133.969 403.611 132.617L404.468 132.199C404.776 132.82 405.05 133.457 405.288 134.107C405.468 134.712 405.785 135.958 405.785 135.958C405.761 135.012 405.672 134.069 405.519 133.135C405.317 132.322 405.166 131.263 405.166 131.263L406.08 131.04C406.331 131.784 406.531 132.544 406.678 133.315C406.822 134.251 407.146 135.828 407.146 135.828C407.197 134.869 407.197 133.907 407.146 132.948C407.097 132.614 407.066 132.277 407.052 131.94H408.01C408.231 132.639 408.345 133.367 408.348 134.1C408.331 134.675 408.362 135.251 408.442 135.821C408.616 135.05 408.705 134.263 408.708 133.474C408.655 133.21 408.655 132.938 408.708 132.674L409.428 132.797C409.428 132.797 409.846 135.72 409.983 137.484C410.12 139.248 409.904 141.487 409.889 142.733C409.875 143.978 409.839 144.958 409.839 144.958L408.14 149.76Z" fill="#FEC4AD"/>
<path d="M388.627 153.18C392.403 156.254 396.368 159.086 400.5 161.662C400.5 161.662 402.71 156.118 403.762 152.194C405.022 147.506 405.389 145.346 405.389 145.346L409.867 144.979C409.867 144.979 408.427 156.967 406.685 165.096C404.971 173.016 402.818 171.576 400.925 171.202C399.031 170.827 381.204 161.237 381.204 161.237L383.112 151.056C383.112 151.056 384.386 149.695 388.627 153.18Z" fill="#FEC4AD"/>
<path d="M369.792 124.394C370.742 123.847 375.35 123.473 378.23 125.244C383.746 128.642 381.11 137.945 380.75 140.083C380.39 142.222 382.385 146.088 382.349 148.644C382.313 151.2 381.708 152.129 379.793 154.606C379.407 155.203 379.161 155.88 379.073 156.586C377.671 154.285 376.796 151.704 376.51 149.026C376.056 144.626 375.12 145.649 372.91 140.818C370.699 135.986 370.613 128.7 370.613 128.7L369.792 124.394Z" fill="#471A16"/>
<path d="M374.4 127.548L369.814 124.394C368.611 124.284 367.4 124.501 366.31 125.021C365.22 125.542 364.291 126.348 363.622 127.354C361.346 130.838 360.554 135.886 360.022 139.673C359.489 143.46 358.178 150.595 358.265 153.418C358.351 156.24 361.793 156.629 361.793 156.629L373.313 151.646C372.508 147.517 372.471 143.275 373.205 139.133C373.965 135.317 374.365 131.439 374.4 127.548Z" fill="#471A16"/>
<path d="M378.216 128.513C378.454 129.953 379.57 134.158 379.656 136.858C379.743 139.558 379.447 144.007 377.655 145.238C375.862 146.47 372.507 145.483 370.044 144.468C367.582 143.453 366.991 141.725 366.509 140.148C366.027 138.571 366.199 134.352 366.761 131.335C366.913 130.148 367.458 129.045 368.308 128.202C369.159 127.36 370.266 126.825 371.455 126.684C373.68 126.266 378.216 128.513 378.216 128.513Z" fill="#FEC4AD"/>
<path d="M368.165 138.564C368.165 138.564 368.791 145.282 367.38 148.435C366.408 150.595 362.455 151.538 362.455 151.538C362.57 155.779 363.894 159.898 366.271 163.411C370.231 169.243 382.622 171.396 382.622 171.396C384.203 168.089 385.443 164.629 386.323 161.071C387.605 155.614 384.163 151.402 384.163 151.402C384.163 151.402 380.815 150.307 379.209 149.702C375.307 148.262 375.761 142.027 375.761 142.027L368.165 138.564Z" fill="#FEC4AD"/>
<path d="M375.696 154.13C375.696 154.13 367.689 152.093 365.277 150.53L357.357 155.254C357.357 155.254 352.692 159.703 360.655 171.41C360.655 171.41 363.679 182.066 358.768 200.851C358.768 200.851 360.093 205.69 367.531 203.112C373.932 200.894 374.076 199.159 379.692 197.741C387.972 195.638 390.153 194.35 390.153 194.35C385.833 187.812 386.553 177.602 386.553 177.602C386.553 177.602 391.485 172.879 389.368 168.055C386.316 161.086 385.293 151.236 385.293 151.236L381.045 150.156C380.007 151.442 378.871 152.645 377.647 153.756C377.393 154.001 377.073 154.166 376.727 154.233C376.38 154.299 376.022 154.264 375.696 154.13Z" fill="#35C666"/>
<path d="M379.181 149.71C379.181 149.71 378.208 153.31 375.688 154.13C375.688 154.13 376.675 159.098 379.029 158.242C382.334 157.032 381.045 150.156 381.045 150.156L379.181 149.71Z" fill="white"/>
<path d="M364.32 149.918C364.32 149.918 365.89 157.514 370.08 158.126C374.271 158.738 375.689 154.123 375.689 154.123C375.689 154.123 366.797 151.517 365.926 148.795L364.32 149.918Z" fill="white"/>
<path d="M371.715 126.605C370.944 126.655 370.368 130.313 370.275 132.365C370.181 134.417 367.143 136.015 368.489 140.508C369.835 145.001 369.655 149.335 371.463 154.26C373.27 159.185 371.016 160.985 370.023 162.684C370.023 162.684 366.149 158.443 364.839 156.319C364.301 155.369 363.473 154.617 362.477 154.171C361.481 153.725 360.368 153.61 359.302 153.842C359.302 153.842 365.213 142.366 365.011 139.27C364.81 136.174 364.291 131.45 366.725 128.621C369.159 125.791 371.715 126.605 371.715 126.605Z" fill="#471A16"/>
<path d="M368.604 135.77C368.604 135.77 366.962 133.97 365.875 134.244C364.788 134.518 364.723 136.145 365.551 137.477C366.379 138.809 369.432 139.565 369.432 139.565L368.604 135.77Z" fill="#FEC4AD"/>
<path d="M372.341 132.271C373.831 132.408 374.681 132.192 377.006 131.933C379.987 131.602 381.24 132.372 381.24 132.372L380.109 127.44C380.109 127.44 376.632 125.51 374.169 125.525C371.03 125.525 368.287 126.749 369.85 127.757C371.412 128.765 372.341 132.271 372.341 132.271Z" fill="#471A16"/>
<path d="M364.076 160.805C363.543 167.018 361.714 184.73 361.714 184.73C367.366 189.677 375.394 197.906 375.394 197.906C375.394 197.906 373.119 202.399 372.14 201.636C364.349 195.545 355.443 191.938 354.802 187.697C353.758 180.734 353.362 163.217 355.961 157.507C357.927 153.115 364.637 154.21 364.076 160.805Z" fill="#FEC4AD"/>
<path d="M378.806 198.454C381.175 199.346 382.666 200.218 382.522 201.096C382.421 201.708 380.405 200.592 379.195 200.628C379.844 201.841 380.849 202.826 382.075 203.45C383.638 204.221 384.516 205.286 383.681 206.194C382.846 207.101 381.298 208.354 380.29 207.9C379.282 207.446 375.71 204.941 374.364 204.25C373.018 203.558 372.478 201.866 371.786 201.37C371.095 200.873 373.054 197.345 373.054 197.345C373.428 197.446 375.379 197.863 375.379 197.863C376.02 197.966 376.667 198.019 377.316 198.022C377.833 198.083 378.337 198.229 378.806 198.454Z" fill="#FEC4AD"/>
<path d="M5.34961 317.16H534.65" stroke="#194459" stroke-miterlimit="10"/>
<defs>
<radialGradient id="paint0_radial" cx="0" cy="0" r="1" gradientUnits="userSpaceOnUse" gradientTransform="translate(119.542 257.79) scale(58.3416)">
<stop stop-color="white"/>
<stop offset="1" stop-color="white" stop-opacity="0"/>
</radialGradient>
<linearGradient id="paint1_linear" x1="175.133" y1="224.417" x2="175.133" y2="282.506" gradientUnits="userSpaceOnUse">
<stop stop-color="#FFD71D"/>
<stop offset="1" stop-color="#FEB200"/>
</linearGradient>
<linearGradient id="paint2_linear" x1="426.341" y1="227.671" x2="385.963" y2="227.671" gradientUnits="userSpaceOnUse">
<stop stop-color="#343A44"/>
<stop offset="0.3" stop-color="#232D3E"/>
<stop offset="0.64" stop-color="#182439"/>
<stop offset="1" stop-color="#142138"/>
</linearGradient>
<linearGradient id="paint3_linear" x1="26244.3" y1="23807.3" x2="30778.6" y2="23807.3" gradientUnits="userSpaceOnUse">
<stop stop-color="#343A44"/>
<stop offset="0.3" stop-color="#232D3E"/>
<stop offset="0.64" stop-color="#182439"/>
<stop offset="1" stop-color="#142138"/>
</linearGradient>
</defs>
</svg>
