<svg width="280" height="348" viewBox="0 0 280 348" fill="none" xmlns="http://www.w3.org/2000/svg">
<g clip-path="url(#clip0)">
<path d="M-5.75684 351.685L36.8427 290.034L69.4344 308.26L-5.75684 351.685Z" fill="#0B4477"/>
<path d="M69.4344 308.26L-5.75684 351.685L105.61 348.798L69.4344 308.26Z" fill="#95D8EB"/>
<path d="M69.4346 308.26L116.565 309.392L105.61 348.798L69.4346 308.26Z" fill="#35C668"/>
<path d="M116.565 309.392L144.973 349.399L105.61 348.798L116.565 309.392Z" fill="#4DB4D7"/>
<path d="M116.564 309.392L162.264 251.897L144.973 349.399L116.564 309.392Z" fill="#0B4477"/>
<path d="M162.264 251.897L185.972 309.01L144.973 349.399L162.264 251.897Z" fill="#3ECE9B"/>
<path d="M185.972 309.01L170.35 350.484L144.973 349.399L185.972 309.01Z" fill="#35C668"/>
<path d="M162.264 251.897L105.773 268.908L116.565 309.392L162.264 251.897Z" fill="#95D8EB"/>
<path d="M105.773 268.908L69.4346 308.26L116.565 309.392L105.773 268.908Z" fill="#3ECE9B"/>
<path d="M105.773 268.908L73.1475 265.729L69.4346 308.26L105.773 268.908Z" fill="#35C668"/>
<path d="M73.1474 265.729L36.8428 290.034L69.4345 308.26L73.1474 265.729Z" fill="#4DB4D7"/>
<path d="M185.972 309.01L206.648 331.883L170.351 350.484L185.972 309.01Z" fill="#0B4477"/>
<path d="M206.648 331.883L260.468 352.742L170.351 350.484L206.648 331.883Z" fill="#95D8EB"/>
<path d="M197.758 301.893L189.705 274.149L218.454 302.658L197.758 301.893Z" fill="#4DB4D7"/>
<path d="M75.4023 258.318L107.258 260.734L86.2549 246.909L75.4023 258.318Z" fill="#0B4477"/>
<path d="M26.4193 271.563L47.1434 249.666L20.6763 256.612L26.4193 271.563Z" fill="#95D8EB"/>
<path d="M-2.56152 353.084L44.9908 284.261L81.3772 304.609L-2.56152 353.084Z" stroke="#303030" stroke-miterlimit="10"/>
<path d="M81.3772 304.609L-2.56152 353.084L121.763 349.863L81.3772 304.609Z" stroke="#303030" stroke-miterlimit="10"/>
<path d="M81.377 304.609L133.998 305.872L121.762 349.863L81.377 304.609Z" stroke="#303030" stroke-miterlimit="10"/>
<path d="M133.998 305.872L165.711 350.532L121.763 349.863L133.998 305.872Z" stroke="#303030" stroke-miterlimit="10"/>
<path d="M133.998 305.872L185.011 241.689L165.711 350.532L133.998 305.872Z" stroke="#303030" stroke-miterlimit="10"/>
<path d="M185.011 241.689L211.478 305.448L165.711 350.532L185.011 241.689Z" stroke="#303030" stroke-miterlimit="10"/>
<path d="M211.478 305.448L194.038 351.746L165.711 350.532L211.478 305.448Z" stroke="#303030" stroke-miterlimit="10"/>
<path d="M185.011 241.689L121.946 260.672L133.998 305.872L185.011 241.689Z" stroke="#303030" stroke-miterlimit="10"/>
<path d="M121.946 260.672L81.377 304.609L133.998 305.872L121.946 260.672Z" stroke="#303030" stroke-miterlimit="10"/>
<path d="M121.946 260.672L85.519 257.124L81.377 304.609L121.946 260.672Z" stroke="#303030" stroke-miterlimit="10"/>
<path d="M85.5192 257.124L44.9907 284.261L81.3771 304.609L85.5192 257.124Z" stroke="#303030" stroke-miterlimit="10"/>
<path d="M211.478 305.448L234.56 330.975L194.038 351.746L211.478 305.448Z" stroke="#303030" stroke-miterlimit="10"/>
<path d="M234.56 330.975L294.647 354.264L194.038 351.746L234.56 330.975Z" stroke="#303030" stroke-miterlimit="10"/>
<path d="M224.633 297.506L215.647 266.527L247.735 298.352L224.633 297.506Z" stroke="#303030" stroke-miterlimit="10"/>
<path d="M88.04 248.854L123.609 251.549L100.16 236.115L88.04 248.854Z" stroke="#303030" stroke-miterlimit="10"/>
<path d="M33.3546 263.634L56.4903 239.192L26.9438 246.95L33.3546 263.634Z" stroke="#303030" stroke-miterlimit="10"/>
<path d="M36.761 291.781L0.177027 347.536L-16.1733 244.078L36.761 291.781Z" fill="#95D8EB"/>
</g>
<defs>
<clipPath id="clip0">
<rect width="280" height="348" fill="white"/>
</clipPath>
</defs>
</svg>
