<svg id="OBJECTS" xmlns="http://www.w3.org/2000/svg" xmlns:xlink="http://www.w3.org/1999/xlink" viewBox="0 0 500 500"><defs><style>.cls-1{fill:none;stroke:#36ce8a;stroke-miterlimit:10;}.cls-2{fill:#00b5d9;}.cls-25,.cls-3,.cls-45,.cls-48,.cls-49,.cls-5{fill:#fff;}.cls-4{fill:#d8d8cb;}.cls-26,.cls-5{font-size:8.9px;}.cls-5{font-family:OpenSans-Bold, Open Sans;}.cls-27,.cls-5{font-weight:700;}.cls-28,.cls-5{letter-spacing:-0.04em;}.cls-6{fill:#f5f5f3;}.cls-7{fill:url(#linear-gradient);}.cls-8{fill:url(#linear-gradient-2);}.cls-9{fill:#c6c5b3;}.cls-10,.cls-26{fill:#5c7a8e;}.cls-11{fill:#416172;}.cls-12{fill:url(#linear-gradient-3);}.cls-13{fill:url(#linear-gradient-4);}.cls-14,.cls-32{fill:#a5b7c6;}.cls-15{fill:#e5e5e5;}.cls-16{fill:#00c761;}.cls-17{fill:#6dd9ec;}.cls-18{fill:#fcedea;}.cls-19{fill:#d2f9ff;}.cls-20{opacity:0.18;}.cls-21,.cls-44{fill:#36ce8a;}.cls-22{font-size:7.14px;fill:#7a94a5;}.cls-22,.cls-28,.cls-29,.cls-30,.cls-31,.cls-32{font-family:OpenSans, OpenSans;}.cls-23{letter-spacing:0em;}.cls-24{letter-spacing:0em;}.cls-25{font-size:10.78px;}.cls-25,.cls-45,.cls-48,.cls-49{font-family:OpenSans-Regular, Open Sans;}.cls-26{font-family:OpenSans-Semibold, Open Sans;letter-spacing:-0.04em;}.cls-29{letter-spacing:-0.03em;}.cls-30{letter-spacing:-0.12em;}.cls-31{letter-spacing:-0.04em;}.cls-32{font-size:6.69px;letter-spacing:-0.05em;}.cls-33{letter-spacing:-0.06em;}.cls-34{letter-spacing:-0.07em;}.cls-35{letter-spacing:-0.07em;}.cls-36{fill:url(#linear-gradient-5);}.cls-37{fill:url(#linear-gradient-6);}.cls-38{fill:url(#linear-gradient-7);}.cls-39{fill:#007d8e;}.cls-40{fill:url(#linear-gradient-8);}.cls-41{fill:url(#linear-gradient-9);}.cls-42{fill:url(#linear-gradient-10);}.cls-43{fill:#00cf9a;}.cls-44,.cls-47{opacity:0.72;}.cls-45{font-size:8.9px;letter-spacing:-0.04em;}.cls-46,.cls-47{fill:#004279;}.cls-48{font-size:10.86px;letter-spacing:-0.04em;}.cls-49{font-size:5.12px;letter-spacing:-0.04em;}</style><linearGradient id="linear-gradient" x1="51.23" y1="289.41" x2="312.61" y2="358.48" gradientUnits="userSpaceOnUse"><stop offset="0.11" stop-color="#fcedea"/><stop offset="0.12" stop-color="#fcede9"/><stop offset="0.27" stop-color="#fcd6be"/><stop offset="0.41" stop-color="#fcc39d"/><stop offset="0.55" stop-color="#fcb785"/><stop offset="0.68" stop-color="#fcaf76"/><stop offset="0.79" stop-color="#fcac71"/></linearGradient><linearGradient id="linear-gradient-2" x1="308.94" y1="140.25" x2="367.88" y2="67.61" gradientUnits="userSpaceOnUse"><stop offset="0.29" stop-color="#fff" stop-opacity="0"/><stop offset="0.32" stop-color="#fff" stop-opacity="0.08"/><stop offset="0.42" stop-color="#fff" stop-opacity="0.32"/><stop offset="0.52" stop-color="#fff" stop-opacity="0.53"/><stop offset="0.62" stop-color="#fff" stop-opacity="0.7"/><stop offset="0.71" stop-color="#fff" stop-opacity="0.83"/><stop offset="0.8" stop-color="#fff" stop-opacity="0.92"/><stop offset="0.88" stop-color="#fff" stop-opacity="0.98"/><stop offset="0.95" stop-color="#fff"/></linearGradient><linearGradient id="linear-gradient-3" x1="248.82" y1="112.54" x2="249.57" y2="115.13" gradientTransform="translate(85.19 -105.5) rotate(28.63)" gradientUnits="userSpaceOnUse"><stop offset="0" stop-color="#f5f5f3"/><stop offset="0.9" stop-color="#f5f5f3" stop-opacity="0"/></linearGradient><linearGradient id="linear-gradient-4" x1="250.73" y1="116.93" x2="249.87" y2="115.01" gradientTransform="translate(86.03 -105.71) rotate(28.62)" xlink:href="#linear-gradient-3"/><linearGradient id="linear-gradient-5" x1="443.59" y1="346.49" x2="322.43" y2="352.62" gradientUnits="userSpaceOnUse"><stop offset="0.11" stop-color="#fcedea"/><stop offset="0.22" stop-color="#fce6dc"/><stop offset="0.43" stop-color="#fcdac4"/><stop offset="0.62" stop-color="#fcd3b5"/><stop offset="0.79" stop-color="#fcd0b0"/></linearGradient><linearGradient id="linear-gradient-6" x1="348.5" y1="296.84" x2="303.97" y2="352.82" gradientUnits="userSpaceOnUse"><stop offset="0.14" stop-color="#fcac71"/><stop offset="1" stop-color="#fcd0b0"/></linearGradient><linearGradient id="linear-gradient-7" x1="525.7" y1="464.6" x2="263.42" y2="301.23" gradientUnits="userSpaceOnUse"><stop offset="0.14" stop-color="#fcac71"/><stop offset="1" stop-color="#fcac71" stop-opacity="0"/></linearGradient><linearGradient id="linear-gradient-8" x1="297.53" y1="280.45" x2="283.33" y2="256.74" xlink:href="#linear-gradient-5"/><linearGradient id="linear-gradient-9" x1="234.12" y1="263.17" x2="157.32" y2="313.18" xlink:href="#linear-gradient-5"/><linearGradient id="linear-gradient-10" x1="134.39" y1="253.29" x2="153.89" y2="260.06" xlink:href="#linear-gradient-5"/></defs><title>registration_icon</title><polyline class="cls-1" points="219.52 89.1 264.17 89.1 264.17 369.67 410.33 369.67 410.33 204.33"/><rect class="cls-2" x="42.82" y="65.72" width="176.39" height="209.01"/><rect class="cls-3" x="141.62" y="72.7" width="71.25" height="15.98" rx="1.31" ry="1.31"/><path class="cls-4" d="M149.71,77.65a2.9,2.9,0,1,0,0,4.11A2.9,2.9,0,0,0,149.71,77.65ZM150.5,82l-.63.63,1.54,1.54.63-.63Z"/><text class="cls-5" transform="translate(49.93 83.07) scale(1.04 1)">CONFERENCE</text><rect class="cls-6" x="49.15" y="94.12" width="163.73" height="173.21"/><path class="cls-4" d="M101.93,109.2H61.44v3.57h40.49Zm46.14,34.38H61.44v63h86.63Zm.45-23.67H61.44v3.57h87.08Zm0,10.72H61.44v3.57h87.08Zm0,84.4H61.44v3.57h87.08Zm-87.08,19.2v3.57H204.78v-3.57Zm0,14.29H204.78V245H61.44Z"/><path class="cls-7" d="M167.42,373.86s19.5,3.72,35.58-32.9,13.4-99.58,13.4-99.58-50-26.35-54.48-20.54-6.7,19.2-6.25,24.11-19.2,80.23-26.35,95c-1.36,2.81-26.27,33-26.79,36.92-1.59,11.89,15.67,37.88,36.32,32.75C146.95,407.57,162.94,375.29,167.42,373.86Z"/><rect class="cls-6" x="161.6" y="105.65" width="176.12" height="241.09" rx="6.3" ry="6.3"/><path class="cls-8" d="M334.13,85a24.24,24.24,0,1,0,24.24,24.24A24.27,24.27,0,0,0,334.13,85Zm0,42.22a18,18,0,1,1,18-18A18,18,0,0,1,334.13,127.18Zm0-58.09a40.11,40.11,0,1,0,40.11,40.11A40.15,40.15,0,0,0,334.13,69.09Zm0,77.54a37.43,37.43,0,1,1,37.43-37.43A37.47,37.47,0,0,1,334.13,146.63Zm0-92.06a54.63,54.63,0,1,0,54.63,54.63A54.69,54.69,0,0,0,334.13,54.57Zm0,108.36a53.74,53.74,0,1,1,53.74-53.73A53.8,53.8,0,0,1,334.13,162.93Z"/><path class="cls-4" d="M337.72,123.44V112a6.3,6.3,0,0,0-6.3-6.3H167.9a6.3,6.3,0,0,0-6.3,6.3v11.49Z"/><circle class="cls-9" cx="249.66" cy="114.78" r="2.23"/><circle class="cls-10" cx="249.66" cy="114.78" r="1.9"/><circle class="cls-11" cx="249.66" cy="114.78" r="1.56"/><ellipse class="cls-12" cx="249.29" cy="114.15" rx="0.96" ry="0.73" transform="translate(-24.21 133.42) rotate(-28.63)"/><ellipse class="cls-13" cx="250.21" cy="115.76" rx="0.47" ry="0.35" transform="translate(-24.88 134) rotate(-28.62)"/><path class="cls-4" d="M161.6,329v11.49a6.3,6.3,0,0,0,6.3,6.3H331.42a6.3,6.3,0,0,0,6.3-6.3V329Z"/><path class="cls-14" d="M313.95,132.74v1.68h12.91v-1.68Zm0,5.05h12.91v-1.68H313.95Zm0,3.37h12.91v-1.68H313.95Z"/><path class="cls-15" d="M314,132.84v1.68h12.91v-1.68Zm0,5.05h12.91v-1.68H314Zm0,3.37h12.91v-1.68H314Z"/><rect class="cls-3" x="161.6" y="153.56" width="176.12" height="35.13"/><rect class="cls-15" x="161.6" y="153.56" width="176.12" height="1.19"/><rect class="cls-16" x="161.6" y="284.25" width="176.12" height="33.94"/><rect class="cls-17" x="161.6" y="188.69" width="33.97" height="33.94"/><rect class="cls-18" x="195.57" y="188.69" width="142.15" height="33.94"/><rect class="cls-2" x="161.6" y="222.62" width="33.97" height="33.94"/><rect class="cls-19" x="195.57" y="222.62" width="142.15" height="33.94"/><g class="cls-20"><polygon class="cls-21" points="219.21 123.5 212.88 123.5 212.88 267.33 161.6 267.33 161.6 274.73 219.21 274.73 219.21 123.5"/></g><path class="cls-3" d="M178.88,237.95a2.53,2.53,0,1,0-1.45,0v6.61h1.45v-.71h1.23v-1h-1.23Zm-.67-3.38a1,1,0,1,1-1,1A1,1,0,0,1,178.21,234.56Z"/><path class="cls-3" d="M182,202.08a3.8,3.8,0,1,0-3.8,3.8A3.8,3.8,0,0,0,182,202.08Zm-3.8,3.8a3.8,3.8,0,0,0-3.8,3.8v3.8H182v-3.8A3.8,3.8,0,0,0,178.21,205.88Z"/><text class="cls-22" transform="translate(232.11 209.55) scale(1.04 1)">USERN<tspan class="cls-23" x="20.2" y="0">A</tspan><tspan class="cls-24" x="24.55" y="0">ME</tspan></text><text class="cls-25" transform="translate(228.52 304.77) scale(1.04 1)">Register</text><text class="cls-22" transform="translate(235.81 243.04) scale(1.04 1)">*********</text><text class="cls-26" transform="translate(206.4 142.01) scale(1.04 1)"><tspan class="cls-27">ONLINE</tspan><tspan class="cls-28" x="31.32" y="0" xml:space="preserve"> REGIST</tspan><tspan class="cls-29" x="56.57" y="0">R</tspan><tspan class="cls-30" x="61.05" y="0">A</tspan><tspan class="cls-31" x="65.45" y="0">TION</tspan></text><text class="cls-32" transform="translate(171.72 170.18) scale(1.04 1)">S<tspan class="cls-33" x="2.94" y="0">ecu</tspan><tspan class="cls-34" x="11.76" y="0">r</tspan><tspan class="cls-33" x="13.48" y="0">e lo</tspan><tspan class="cls-35" x="21.89" y="0">g</tspan><tspan class="cls-33" x="25.19" y="0">in</tspan></text><path class="cls-36" d="M307.43,323.37c-1-.69-15.89,12.49-13,23.24,5.58,20.88,10.54,36,23.22,47.73,4.26,3.93,32.56,10,35.72,14.84,10.41,16,23.19,32.93,23.19,32.93,9.21,1.05,47.13-34.88,49.63-39.43,0,0-24.08-26-26.9-32.32-8.35-18.55-6-49.71-25.74-66.72-3.63-3.12-12.08-8.5-20.18-7.89s-20.34,9-22.73,8.58c0,0-10.51-13.76-13.92-16.54C314.45,286,298.15,267.2,294.79,263c-2.2-2.78-14,.42-14.88,5.3a21.85,21.85,0,0,0,.39,8.5c3.23,10.24,10.51,16.57,17,24.93C301.11,306.54,307.43,323.37,307.43,323.37Z"/><path class="cls-37" d="M307.43,323.37c-.4-.28-3,1.68-5.85,4.8l18.53,32Z"/><path class="cls-38" d="M324.33,333.38c3.26,8.49,11.88,26.43,13.41,44.58,1.93,22.87-18.72,16.84-18.81,16.75l.09.09s14.24,4.09,27.61,7.59a32,32,0,0,1,19.12,14.1l14.35,23.14c4.68-4.14,32.78-22,40.82-35.87L395.25,375s-3.17-58.68-23.89-72.28c-3.13-2.06-20.16,7.71-32.32,15.1-1.54.94-9.29-14.56-22.18-28.32-11.44-12.21-22.7-26.36-23.23-26.44-8.46-1.24-11.71,3.18-11.87,4.33-.56,4.27,9.43,17.47,22.26,32.31C315.53,313,323.72,331.79,324.33,333.38Z"/><path class="cls-2" d="M358.62,436.08s39.3-45.55,65.2-48.9l2.9,10.94,4.69.89,1.34,4,13.62,11.16L377,467.93l-4.76-14.29.3-5.06-5.06-.89Z"/><polygon class="cls-39" points="382.66 435.78 367.48 447.69 372.54 448.58 382.66 435.78"/><path class="cls-39" d="M426.72,398.12s-12.5,2.83-40.49,26.64c0,0,8.56-14.36,39.15-31.55Z"/><path class="cls-39" d="M431.41,399s-17.79,11.16-26.27,19.65c0,0,19.05-13.54,27.61-15.63Z"/><path class="cls-40" d="M283,267.71l4.52,7a24.73,24.73,0,0,1,11.21-3.87l-5.06-7.73S286.59,262.68,283,267.71Z"/><path class="cls-41" d="M195.7,351.53c-35.72,20.54-44.94,4.58-42.31,1.88,7.87-8.09,20.58-26.93,5-56.37,0,0,5.66-40.53-.89-47.36s-18.31-2.56-18.31-2.56-.62,38.14-5.06,46.5c-17.2,32.38-17.1,45.85-14,55.92.46,1.52-12.7,19-12.16,20.44,1.84,4.78,20.63,31.69,34.53,30.37,5.05-.48,17.71-20.16,11.15-23.92-35-20.07,1.42-6.67,1.42-6.67C181.78,382,195.7,351.53,195.7,351.53Z"/><path class="cls-42" d="M144.29,251l.58,11.49-5.58.41.07-14.85,2.11,0A2.86,2.86,0,0,1,144.29,251Z"/><path class="cls-2" d="M167.12,403.93s-39.3-45.55-65.2-48.9L99,366l-4.69.89-1.34,4L79.37,382l66,55.37,3.13-10.72,7.14-3.13-.45-8Z"/><polygon class="cls-39" points="148.52 426.7 129.31 404.22 155.66 423.57 148.52 426.7"/><path class="cls-39" d="M99,366s26.12,12.06,49.79,40.64c0,0-17.86-28.36-48.45-45.55Z"/><path class="cls-39" d="M94.33,366.86s17.79,11.16,26.27,19.65c0,0-19.05-13.55-27.61-15.63Z"/><rect class="cls-43" x="337.89" y="239.5" width="117.28" height="32.97"/><rect class="cls-44" x="320.61" y="239.5" width="17.28" height="32.97"/><text class="cls-45" transform="translate(355.2 258.51) scale(1.04 1)">ARE YOU SURE?</text><rect class="cls-46" x="337.72" y="163.87" width="130" height="40.24"/><rect class="cls-47" x="305.49" y="163.87" width="32.23" height="40.24"/><text class="cls-48" transform="translate(334.68 185.07) scale(1.04 1)">CONGRATULATIONS!</text><text class="cls-49" transform="translate(370.17 193.39) scale(1.04 1)">Enjoy your life</text></svg>